PathFileType	4	(X/Y/Z)	C:/Users/opensim2020/Desktop/walking_exp_matlab/subject01_walking12_straight_03.trc	
DataRate	CameraRate	NumFrames	NumMarkers	Units	OrigDataRate	OrigDataStartFrame	OrigNumFrames	
100.00	100.00	4	44	mm	100.00	1884	172	
Frame#	Time	LFHD			RFHD			LBHD			RBHD			C7			T10			CLAV			STRN			RBAK			LSHO			LUPA			LELB			LFRM			LWRA			LWRB			LFIN			RSHO			RUPA			RELB			RFRM			RWRA			RWRB			RFIN			LASI			RASI			LPSI			RPSI			LTHI			LKNE			LTIB			LANK			LHEE			LTOE			RTHI			RKNE			RTIB			RANK			RHEE			RTOE			*39			*40			*41			*42			*43			
		X1	Y1	Z1	X2	Y2	Z2	X3	Y3	Z3	X4	Y4	Z4	X5	Y5	Z5	X6	Y6	Z6	X7	Y7	Z7	X8	Y8	Z8	X9	Y9	Z9	X10	Y10	Z10	X11	Y11	Z11	X12	Y12	Z12	X13	Y13	Z13	X14	Y14	Z14	X15	Y15	Z15	X16	Y16	Z16	X17	Y17	Z17	X18	Y18	Z18	X19	Y19	Z19	X20	Y20	Z20	X21	Y21	Z21	X22	Y22	Z22	X23	Y23	Z23	X24	Y24	Z24	X25	Y25	Z25	X26	Y26	Z26	X27	Y27	Z27	X28	Y28	Z28	X29	Y29	Z29	X30	Y30	Z30	X31	Y31	Z31	X32	Y32	Z32	X33	Y33	Z33	X34	Y34	Z34	X35	Y35	Z35	X36	Y36	Z36	X37	Y37	Z37	X38	Y38	Z38	X39	Y39	Z39	X40	Y40	Z40	X41	Y41	Z41	X42	Y42	Z42	X43	Y43	Z43	X44	Y44	Z44	

108	1.070	-1056.91919	336.54318	1675.38757	-943.89868	352.20056	1676.10217	-1048.50598	218.62344	1636.43396	-928.46143	232.23999	1636.07800	-1010.57654	173.10788	1439.10486	-1008.34814	138.79526	1144.36768	-1014.81586	316.40387	1371.66174	-1025.81311	360.20831	1218.27734	-935.37848	120.70447	1241.53955	-1173.59509	250.76108	1407.02820	-1261.42847	202.00470	1230.04358	-1264.70667	177.72513	1078.10144	-1288.61719	224.50906	971.57019	-1273.20886	316.47522	866.67078	-1291.99695	260.92026	854.65930	-1303.77869	314.28281	789.99469	-860.68903	256.68164	1393.61230	-759.44171	213.21631	1190.26514	-756.50244	223.49803	1063.83264	-734.02051	272.65634	951.06940	-765.71948	369.89908	851.84137	-723.27881	331.03879	843.76001	-728.28467	382.29535	776.92126	-1124.38025	310.49301	941.94635	-907.51385	317.29047	940.88062	-1068.78491	126.54402	947.73590	-924.33618	131.69093	953.48718	-1202.25635	370.78760	630.82727	-1194.23096	399.07785	500.87842	-1194.46936	290.57455	351.14310	-1142.55530	184.54877	161.66072	-1080.39563	142.88225	148.13402	-1172.00049	289.15829	64.26688	-864.21411	258.84381	605.08167	-896.18335	261.80884	446.48941	-894.43695	200.27693	279.88123	-953.36877	163.72365	78.36069	-1004.85938	112.17722	43.79546	-960.05078	303.47211	37.21809	-964.90491	341.76810	1711.40601	-3101.92676	1973.09436	1023.51599	-3140.87695	2012.53357	1022.16656						 
109	1.080	-1057.17542	346.80417	1675.00500	-944.17474	362.41196	1675.73230	-1048.88428	228.83186	1636.09851	-928.68079	242.37640	1635.83911	-1010.55115	182.97899	1438.97388	-1007.65472	148.44193	1144.18518	-1014.99518	326.34088	1371.24512	-1025.79663	369.94348	1217.75952	-934.60419	130.51656	1241.65771	-1173.65869	260.54047	1406.72131	-1260.88147	210.39127	1229.60876	-1263.26270	184.53911	1078.11450	-1287.02429	228.55144	970.54608	-1271.76978	317.69879	863.07196	-1290.35425	261.72183	852.64954	-1301.89954	313.19189	786.29755	-860.72571	266.91605	1393.60571	-758.94025	224.57889	1190.31763	-755.33093	236.52826	1063.80310	-733.22241	288.81873	952.30316	-765.30634	388.60214	855.92981	-723.21533	349.88849	846.42737	-728.27954	403.27356	781.22986	-1123.85681	320.03143	941.77478	-907.05591	326.33789	940.10333	-1068.93030	135.93909	947.55737	-924.39563	140.67734	953.46631	-1202.08557	383.51770	632.28723	-1193.53357	413.14178	502.14859	-1194.70605	310.69199	347.10553	-1143.33191	214.13391	152.07721	-1081.19177	173.14755	135.88071	-1173.36279	324.43225	61.74306	-864.20258	264.25534	604.72998	-896.01477	265.67340	446.04816	-894.34399	202.58386	280.09729	-953.45605	164.55386	78.75562	-1004.97064	113.09283	44.07748	-960.18903	303.69321	37.12609	-965.43701	351.89981	1710.70996	-3101.98584	1973.05286	1023.43683	-3140.64966	2012.51099	1022.01215						 
110	1.090	-1057.35107	357.09857	1674.44250	-944.53845	372.53351	1675.25513	-1049.24170	238.98401	1635.63770	-929.09290	252.54938	1635.52783	-1010.60156	193.04930	1438.65833	-1007.11121	158.09059	1143.89368	-1015.25415	336.30865	1370.74500	-1025.75293	379.61710	1217.08765	-933.86078	140.40996	1241.69458	-1173.84558	270.34940	1406.16858	-1260.38354	218.86655	1229.02124	-1261.85730	191.58730	1077.96130	-1285.64026	232.81998	969.51617	-1270.41284	319.12326	859.61346	-1288.78552	262.80981	850.72760	-1300.22668	312.27524	782.76886	-860.93054	277.17303	1393.43384	-758.46991	236.03845	1190.38757	-754.21802	249.29747	1063.78674	-732.55139	304.49835	953.20746	-765.18951	407.05765	860.04626	-723.13641	368.61972	849.25494	-728.45752	423.93582	785.73230	-1123.29712	329.46707	941.29559	-906.56934	335.23602	939.15973	-1069.11926	145.36308	947.32690	-924.77655	149.74867	953.14343	-1201.82922	395.78781	633.40460	-1192.74329	426.68610	503.14560	-1194.98584	330.74884	342.79889	-1144.23303	244.46350	142.43211	-1082.10205	204.57521	123.73798	-1174.75061	360.16476	59.50669	-864.24048	270.14197	604.24817	-896.03510	269.58987	445.31702	-894.41357	204.90288	280.10229	-953.83313	164.93755	79.17763	-1005.31702	113.11945	45.15881	-960.29144	303.94022	36.99196	-965.68805	362.26389	1710.48486	-3101.98364	1973.06787	1023.45184	-3140.81665	2012.50586	1022.00079						 
111	1.100	-1058.32043	367.07123	1673.87158	-945.00702	382.74380	1674.72131	-1049.87305	249.12494	1635.15503	-929.59705	262.67813	1635.01367	-1010.78442	203.04361	1438.15442	-1006.75171	167.79361	1143.52429	-1015.50555	346.32855	1370.11707	-1025.77283	389.38242	1216.35645	-933.23035	149.96678	1241.55176	-1173.93164	280.19678	1405.31787	-1259.98523	227.49763	1228.25854	-1260.56714	198.83685	1077.81812	-1284.27661	237.33121	968.42792	-1269.04846	320.76233	856.22113	-1287.28967	264.16339	848.81091	-1298.82666	311.85110	779.53851	-861.21411	287.47842	1393.17517	-758.14001	247.53685	1190.30432	-753.23792	262.08441	1063.67505	-731.94690	320.20465	954.38171	-765.14575	425.19888	864.26007	-722.99713	387.31656	852.28442	-728.68060	444.37976	790.40106	-1122.96069	339.41998	941.16754	-906.12964	344.55615	938.28595	-1069.39685	154.83876	947.01892	-925.00641	159.11526	952.44287	-1201.58716	407.66473	634.11310	-1192.17749	439.37805	503.81055	-1195.50806	350.79568	338.35129	-1145.53430	275.54681	133.17896	-1083.61731	236.23160	111.79721	-1176.36853	396.20587	57.82926	-864.30475	276.01569	603.68915	-895.80481	273.70569	444.75381	-894.45087	207.41251	280.22598	-953.98315	165.58894	79.56461	-1005.64832	113.65417	45.83363	-960.47772	304.18015	36.91756	-965.97870	372.46597	1709.95007	-3102.02881	1973.20618	1023.56512	-3140.82007	2012.50024	1022.04254						 
